#!OML:ASF F:\VICON\USERDATA\INSTALL\rory3\rory3.ASF
:FULLY-SPECIFIED
:DEGREES
242
root -6.52249 15.8916 2.92257 10.1227 9.75554 -0.166513
lowerback 28.7441 2.09547 0.77466
upperback 6.61472 3.27631 3.16461
thorax -8.57285 1.56678 1.94307
lowerneck -18.3948 3.49621 -3.14683
upperneck 12.7379 6.5064 -5.55943
head 7.02221 2.45571 -0.569769
rclavicle 1.82882e-014 -2.62396e-014
rhumerus -21.6775 -25.9223 -56.927
rradius 68.7719
rwrist 28.8791
rhand -38.0891 -12.2767
rfingers 7.12502
rthumb -11.1252 -41.9618
lclavicle 1.82882e-014 -2.62396e-014
lhumerus -21.5237 25.1762 60.3074
lradius 66.6269
lwrist -10.5242
lhand -29.0207 46.9931
lfingers 7.12502
lthumb -2.37167 76.9596
rfemur -69.2414 -13.0633 24.4985
rtibia 71.4727
rfoot -1.25556 -1.51034
rtoes -0.0329245
lfemur -45.1296 -3.14665 -20.4474
ltibia 72.8962
lfoot -19.7765 -8.51649
ltoes -21.4978
243
root -6.54096 15.9184 2.99271 9.99684 10.3551 0.076509
lowerback 28.5422 2.01495 0.692442
upperback 6.73398 3.14846 3.17847
thorax -8.33947 1.51155 2.05627
lowerneck -18.408 3.19735 -3.01177
upperneck 12.744 6.07356 -5.59005
head 7.0255 2.25123 -0.650073
rclavicle -4.85035e-014 -1.59028e-014
rhumerus -20.8406 -26.1861 -56.9836
rradius 68.1899
rwrist 28.9136
rhand -38.631 -10.9198
rfingers 7.12502
rthumb -11.6479 -40.5761
lclavicle -4.85035e-014 -1.59028e-014
lhumerus -22.0807 25.277 60.3122
lradius 66.5102
lwrist -10.1032
lhand -29.894 44.7473
lfingers 7.12502
lthumb -3.2151 74.7029
rfemur -68.9215 -13.2128 23.8205
rtibia 69.1285
rfoot 0.996281 -2.616
rtoes 2.20999
lfemur -44.4498 -3.49101 -20.5842
ltibia 72.4741
lfoot -19.8523 -8.58733
ltoes -21.1748
244
root -6.55113 15.9412 3.05862 9.86189 10.8994 0.237962
lowerback 29.6166 1.95858 1.24725
upperback 5.8923 3.26433 2.90758
thorax -9.7824 1.54099 1.3573
lowerneck -17.5965 2.67307 -2.97841
upperneck 13.3565 5.26459 -5.08392
head 7.05998 1.90362 -0.589785
rclavicle 3.18055e-015 1.59028e-014
rhumerus -22.1624 -26.3589 -56.2571
rradius 68.064
rwrist 29.6331
rhand -38.4771 -11.3047
rfingers 7.12502
rthumb -11.4994 -40.9693
lclavicle 3.18055e-015 1.59028e-014
lhumerus -23.6843 24.0625 59.7084
lradius 66.5446
lwrist -9.83337
lhand -30.2219 44.1192
lfingers 7.12502
lthumb -3.53174 74.0697
rfemur -68.5017 -13.4298 23.2187
rtibia 66.7204
rfoot 3.23398 -3.80421
rtoes 4.61983
lfemur -43.7549 -3.80563 -20.689
ltibia 72.1187
lfoot -19.7868 -8.65591
ltoes -20.1437
245
root -6.56797 15.963 3.11891 9.80226 11.3802 0.31408
lowerback 29.8526 1.91614 1.43018
upperback 5.64916 3.27836 2.86561
thorax -10.1656 1.53838 1.19079
lowerneck -17.3657 2.25994 -3.23415
upperneck 13.6827 4.68556 -4.56982
head 7.09939 1.65262 -0.447563
rclavicle 7.95139e-016 -7.15625e-015
rhumerus -22.569 -26.3606 -55.9826
rradius 68.4172
rwrist 30.0597
rhand -38.3088 -11.8666
rfingers 7.12502
rthumb -11.3371 -41.5402
lclavicle 7.95139e-016 -7.15625e-015
lhumerus -24.5704 24.0105 59.5955
lradius 66.4524
lwrist -10.0319
lhand -30.2115 42.4937
lfingers 7.12502
lthumb -3.5217 72.4444
rfemur -68.0808 -13.4348 22.6796
rtibia 64.2888
rfoot 5.36082 -5.15107
rtoes 6.23121
lfemur -43.2641 -4.03534 -20.6704
ltibia 71.8235
lfoot -19.6237 -8.69729
ltoes -19.8683
246
root -6.59438 15.984 3.18193 9.79856 11.9135 0.378317
lowerback 29.6255 1.9233 1.36603
upperback 5.73712 3.27635 2.9846
thorax -9.96359 1.54524 1.36923
lowerneck -17.5313 1.85735 -3.45177
upperneck 13.7395 4.17091 -4.36786
head 7.13283 1.40871 -0.40236
rclavicle -1.66979e-014 -5.56597e-015
rhumerus -22.2158 -26.3551 -55.9175
rradius 68.7684
rwrist 29.3872
rhand -38.2728 -11.4017
rfingers 7.12502
rthumb -11.3024 -41.0772
lclavicle -1.66979e-014 -5.56597e-015
lhumerus -24.9296 24.4845 59.8257
lradius 66.2291
lwrist -10.1634
lhand -29.8679 47.36
lfingers 7.12502
lthumb -3.18991 77.3158
rfemur -67.6442 -13.3475 22.0549
rtibia 61.8488
rfoot 7.39907 -6.55287
rtoes 8.69644
lfemur -42.8807 -4.23243 -20.595
ltibia 71.5659
lfoot -19.6405 -8.6584
ltoes -20.3652
247
root -6.61377 15.9931 3.25003 9.81996 12.3658 0.501266
lowerback 29.3299 1.94494 1.28852
upperback 5.79765 3.27972 3.03902
thorax -9.75585 1.55365 1.4813
lowerneck -17.4293 1.46751 -3.49062
upperneck 13.6974 3.61957 -4.23065
head 7.09442 1.15826 -0.413599
rclavicle 5.56597e-015 2.38542e-014
rhumerus -21.8577 -26.3129 -55.7885
rradius 68.9738
rwrist 28.6774
rhand -38.2121 -11.2274
rfingers 7.12502
rthumb -11.2438 -40.9061
lclavicle 5.56597e-015 2.38542e-014
lhumerus -25.2332 25.018 59.9753
lradius 65.8101
lwrist -10.6861
lhand -30.575 45.4911
lfingers 7.12502
lthumb -3.87277 75.4357
rfemur -67.1907 -13.2722 21.3296
rtibia 59.482
rfoot 9.31676 -7.72014
rtoes 10.3186
lfemur -42.5279 -4.44202 -20.6364
ltibia 71.3498
lfoot -19.7629 -8.39537
ltoes -21.0534
248
root -6.63323 16.0015 3.31598 9.68036 12.8016 0.344109
lowerback 29.1032 1.94208 1.37653
upperback 5.90145 3.31518 3.21294
thorax -9.53233 1.5737 1.61985
lowerneck -17.3438 1.14989 -3.58776
upperneck 13.7059 3.18734 -4.10768
head 7.07661 0.95842 -0.40616
rclavicle 1.90833e-014 -9.54166e-015
rhumerus -21.3191 -26.4729 -55.6258
rradius 68.8817
rwrist 28.7884
rhand -38.2617 -11.0459
rfingers 7.12502
rthumb -11.2917 -40.722
lclavicle 1.90833e-014 -9.54166e-015
lhumerus -25.7871 25.5215 60.0684
lradius 65.6228
lwrist -11.0139
lhand -31.5265 43.083
lfingers 7.12502
lthumb -4.79149 73.0089
rfemur -66.5042 -13.0283 20.7702
rtibia 57.139
rfoot 10.9715 -9.13555
rtoes 12.3451
lfemur -42.1953 -4.59719 -20.3671
ltibia 71.2058
lfoot -19.799 -8.344
ltoes -21.6975
